<?xml version="1.0" standalone="no"?>
<!DOCTYPE svg PUBLIC "-//W3C//DTD SVG 20010904//EN"
 "http://www.w3.org/TR/2001/REC-SVG-20010904/DTD/svg10.dtd">
<svg version="1.0" xmlns="http://www.w3.org/2000/svg"
 width="340.000000pt" height="340.000000pt" viewBox="0 0 340.000000 340.000000"
 preserveAspectRatio="xMidYMid meet">
<metadata>
Created by potrace 1.11, written by Peter Selinger 2001-2013
</metadata>
<g transform="translate(0.000000,340.000000) scale(0.100000,-0.100000)"
fill="#000000" stroke="none">
<path d="M1580 2950 c-125 -11 -243 -59 -270 -109 -13 -25 -14 -821 -1 -821 5
0 43 7 83 16 108 24 491 24 606 -1 53 -11 87 -14 93 -8 6 6 9 165 7 401 l-3
391 -30 31 c-16 18 -46 40 -66 50 -87 45 -257 65 -419 50z m164 -171 c91 -23
156 -107 156 -201 0 -147 -154 -249 -285 -189 -79 36 -125 105 -125 188 1 89
57 169 142 200 43 15 60 15 112 2z"/>
<path d="M1640 2628 c-24 -26 -26 -65 -4 -96 22 -32 96 -32 118 0 22 31 20 74
-4 98 -27 27 -83 27 -110 -2z"/>
<path d="M1520 1954 c-245 -16 -459 -66 -516 -119 -44 -41 -53 -79 -27 -113
33 -45 67 -51 121 -20 210 116 990 118 1186 3 52 -30 75 -31 110 -4 21 16 26
29 26 64 0 36 -5 48 -31 69 -54 46 -147 74 -339 102 -95 14 -426 25 -530 18z"/>
<path d="M1396 1679 c-378 -33 -676 -157 -827 -343 -93 -115 -154 -265 -166
-408 l-6 -71 74 7 c41 3 117 11 169 16 514 54 1563 54 2115 0 55 -6 131 -13
169 -17 l69 -6 -6 74 c-7 85 -45 208 -88 290 -140 262 -455 419 -919 459 -132
11 -453 11 -584 -1z"/>
<path d="M1170 834 c-208 -9 -459 -26 -575 -40 -331 -37 -441 -68 -505 -140
-25 -29 -30 -43 -30 -85 0 -62 26 -103 76 -119 41 -14 96 -6 115 16 41 50 230
79 754 115 223 16 1158 16 1380 0 453 -31 662 -60 742 -100 21 -11 61 -22 88
-26 43 -5 55 -3 78 15 61 48 57 142 -9 200 -85 74 -226 103 -719 146 -169 14
-1181 28 -1395 18z"/>
</g>
</svg>
